<?xml version="1.0" standalone="no"?>
<!DOCTYPE svg PUBLIC "-//W3C//DTD SVG 20010904//EN"
 "http://www.w3.org/TR/2001/REC-SVG-20010904/DTD/svg10.dtd">
<svg version="1.0" xmlns="http://www.w3.org/2000/svg"
 width="100.000000pt" height="100.000000pt" viewBox="0 0 100.000000 100.000000"
 preserveAspectRatio="xMidYMid meet">
<metadata>
Created by potrace 1.14, written by Peter Selinger 2001-2017
</metadata>
<g transform="translate(0.000000,100.000000) scale(0.100000,-0.100000)"
fill="#000000" stroke="none">
<path d="M636 873 c-4 -4 -59 -6 -123 -4 -70 1 -113 -1 -109 -7 3 -5 -5 -7
-19 -4 -51 9 -247 -60 -297 -105 -26 -23 -23 -51 7 -59 16 -4 25 -13 25 -25 0
-30 1 -33 13 -48 12 -14 17 -102 6 -95 -7 4 -3 -63 6 -109 10 -46 52 -127 83
-160 73 -78 169 -119 277 -119 63 0 72 -2 94 -26 22 -25 23 -22 7 19 -5 11 6
21 44 38 27 12 50 27 50 32 0 5 5 9 10 9 45 0 145 160 149 238 1 7 15 -3 32
-23 42 -48 50 -37 8 13 -23 28 -33 51 -36 83 -8 95 -52 187 -121 252 -19 18
-28 35 -25 47 9 32 -58 76 -81 53z m53 -24 c33 -31 13 -43 -34 -20 -35 17 -36
19 -19 29 26 15 27 15 53 -9z m-319 -8 c0 -5 -13 -11 -29 -14 -15 -3 -41 -17
-57 -30 -16 -13 -39 -28 -52 -32 -15 -4 -21 -12 -18 -22 3 -8 -7 -28 -24 -46
-16 -18 -30 -40 -30 -49 0 -9 -4 -19 -9 -23 -16 -9 -25 83 -11 100 11 13 10
14 -4 9 -9 -3 -16 -10 -16 -15 0 -5 -9 -9 -20 -9 -48 0 -10 37 82 80 92 43
188 69 188 51z"/>
</g>
</svg>
