<?xml version="1.0" standalone="no"?>
<!DOCTYPE svg PUBLIC "-//W3C//DTD SVG 20010904//EN"
 "http://www.w3.org/TR/2001/REC-SVG-20010904/DTD/svg10.dtd">
<svg version="1.0" xmlns="http://www.w3.org/2000/svg"
 width="64.000000pt" height="64.000000pt" viewBox="0 0 64.000000 64.000000"
 preserveAspectRatio="xMidYMid meet">

<g transform="translate(0.000000,64.000000) scale(0.100000,-0.100000)"
fill="#000000" stroke="none">
<path d="M197 619 c-87 -21 -177 -84 -177 -126 0 -28 33 -63 60 -63 10 0 48
16 82 34 104 57 227 65 321 20 63 -30 60 -42 -63 -249 l-112 -187 -89 148
c-49 82 -96 151 -104 152 -15 3 -15 1 -1 -25 47 -89 183 -307 192 -310 17 -6
247 386 247 421 1 65 -112 113 -242 103 -60 -5 -90 -13 -147 -42 -84 -43 -109
-43 -109 0 0 27 7 33 65 63 151 76 309 61 442 -41 29 -22 50 -32 54 -26 7 12
6 14 -59 62 -87 66 -241 94 -360 66z"/>
</g>
</svg>
